<?xml version="1.0" encoding="UTF-8" standalone="no"?>
<!-- Created with Inkscape (http://www.inkscape.org/) -->

<svg
   xmlns:dc="http://purl.org/dc/elements/1.1/"
   xmlns:cc="http://creativecommons.org/ns#"
   xmlns:rdf="http://www.w3.org/1999/02/22-rdf-syntax-ns#"
   xmlns:svg="http://www.w3.org/2000/svg"
   xmlns="http://www.w3.org/2000/svg"
   xmlns:sodipodi="http://sodipodi.sourceforge.net/DTD/sodipodi-0.dtd"
   xmlns:inkscape="http://www.inkscape.org/namespaces/inkscape"
   width="297mm"
   height="210mm"
   viewBox="0 0 297 210"
   id="svg3352"
   version="1.1"
   inkscape:version="0.91 r13725"
   sodipodi:docname="Deep.svg">
  <defs
     id="defs3354">
    <marker
       inkscape:stockid="Arrow1Mstart"
       orient="auto"
       refY="0.0"
       refX="0.0"
       id="Arrow1Mstart"
       style="overflow:visible"
       inkscape:isstock="true">
      <path
         id="path4219"
         d="M 0.0,0.0 L 5.0,-5.0 L -12.5,0.0 L 5.0,5.0 L 0.0,0.0 z "
         style="fill-rule:evenodd;stroke:#000000;stroke-width:1pt;stroke-opacity:1;fill:#000000;fill-opacity:1"
         transform="scale(0.4) translate(10,0)" />
    </marker>
    <marker
       inkscape:stockid="Arrow1Lstart"
       orient="auto"
       refY="0.0"
       refX="0.0"
       id="marker26406"
       style="overflow:visible"
       inkscape:isstock="true">
      <path
         id="path26408"
         d="M 0.0,0.0 L 5.0,-5.0 L -12.5,0.0 L 5.0,5.0 L 0.0,0.0 z "
         style="fill-rule:evenodd;stroke:#000000;stroke-width:1pt;stroke-opacity:1;fill:#000000;fill-opacity:1"
         transform="scale(0.8) translate(12.5,0)" />
    </marker>
    <marker
       inkscape:isstock="true"
       style="overflow:visible"
       id="marker6157"
       refX="0.0"
       refY="0.0"
       orient="auto"
       inkscape:stockid="Arrow1Lstart"
       inkscape:collect="always">
      <path
         transform="scale(0.8) translate(12.5,0)"
         style="fill-rule:evenodd;stroke:#000000;stroke-width:1pt;stroke-opacity:1;fill:#000000;fill-opacity:1"
         d="M 0.0,0.0 L 5.0,-5.0 L -12.5,0.0 L 5.0,5.0 L 0.0,0.0 z "
         id="path6159" />
    </marker>
    <marker
       inkscape:stockid="Arrow1Lstart"
       orient="auto"
       refY="0.0"
       refX="0.0"
       id="marker4609"
       style="overflow:visible"
       inkscape:isstock="true"
       inkscape:collect="always">
      <path
         id="path4611"
         d="M 0.0,0.0 L 5.0,-5.0 L -12.5,0.0 L 5.0,5.0 L 0.0,0.0 z "
         style="fill-rule:evenodd;stroke:#000000;stroke-width:1pt;stroke-opacity:1;fill:#000000;fill-opacity:1"
         transform="scale(0.8) translate(12.5,0)" />
    </marker>
    <marker
       inkscape:isstock="true"
       style="overflow:visible"
       id="marker4567"
       refX="0.0"
       refY="0.0"
       orient="auto"
       inkscape:stockid="Arrow1Lstart"
       inkscape:collect="always">
      <path
         transform="scale(0.8) translate(12.5,0)"
         style="fill-rule:evenodd;stroke:#000000;stroke-width:1pt;stroke-opacity:1;fill:#000000;fill-opacity:1"
         d="M 0.0,0.0 L 5.0,-5.0 L -12.5,0.0 L 5.0,5.0 L 0.0,0.0 z "
         id="path4569" />
    </marker>
    <marker
       inkscape:stockid="Arrow1Lend"
       orient="auto"
       refY="0.0"
       refX="0.0"
       id="Arrow1Lend"
       style="overflow:visible;"
       inkscape:isstock="true">
      <path
         id="path4216"
         d="M 0.0,0.0 L 5.0,-5.0 L -12.5,0.0 L 5.0,5.0 L 0.0,0.0 z "
         style="fill-rule:evenodd;stroke:#000000;stroke-width:1pt;stroke-opacity:1;fill:#000000;fill-opacity:1"
         transform="scale(0.8) rotate(180) translate(12.5,0)" />
    </marker>
    <marker
       inkscape:stockid="Arrow1Lstart"
       orient="auto"
       refY="0.0"
       refX="0.0"
       id="Arrow1Lstart"
       style="overflow:visible"
       inkscape:isstock="true"
       inkscape:collect="always">
      <path
         id="path4213"
         d="M 0.0,0.0 L 5.0,-5.0 L -12.5,0.0 L 5.0,5.0 L 0.0,0.0 z "
         style="fill-rule:evenodd;stroke:#000000;stroke-width:1pt;stroke-opacity:1;fill:#000000;fill-opacity:1"
         transform="scale(0.8) translate(12.5,0)" />
    </marker>
    <marker
       inkscape:isstock="true"
       style="overflow:visible"
       id="marker6157-5"
       refX="0"
       refY="0"
       orient="auto"
       inkscape:stockid="Arrow1Lstart">
      <path
         inkscape:connector-curvature="0"
         transform="matrix(0.8,0,0,0.8,10,0)"
         style="fill:#000000;fill-opacity:1;fill-rule:evenodd;stroke:#000000;stroke-width:1pt;stroke-opacity:1"
         d="M 0,0 5,-5 -12.5,0 5,5 0,0 Z"
         id="path6159-3" />
    </marker>
    <marker
       inkscape:isstock="true"
       style="overflow:visible"
       id="marker6157-1"
       refX="0"
       refY="0"
       orient="auto"
       inkscape:stockid="Arrow1Lstart">
      <path
         inkscape:connector-curvature="0"
         transform="matrix(0.8,0,0,0.8,10,0)"
         style="fill:#000000;fill-opacity:1;fill-rule:evenodd;stroke:#000000;stroke-width:1pt;stroke-opacity:1"
         d="M 0,0 5,-5 -12.5,0 5,5 0,0 Z"
         id="path6159-2" />
    </marker>
    <marker
       inkscape:isstock="true"
       style="overflow:visible"
       id="marker6157-0"
       refX="0"
       refY="0"
       orient="auto"
       inkscape:stockid="Arrow1Lstart">
      <path
         inkscape:connector-curvature="0"
         transform="matrix(0.8,0,0,0.8,10,0)"
         style="fill:#000000;fill-opacity:1;fill-rule:evenodd;stroke:#000000;stroke-width:1pt;stroke-opacity:1"
         d="M 0,0 5,-5 -12.5,0 5,5 0,0 Z"
         id="path6159-9" />
    </marker>
    <marker
       inkscape:isstock="true"
       style="overflow:visible"
       id="marker6157-0-6"
       refX="0"
       refY="0"
       orient="auto"
       inkscape:stockid="Arrow1Lstart">
      <path
         inkscape:connector-curvature="0"
         transform="matrix(0.8,0,0,0.8,10,0)"
         style="fill:#000000;fill-opacity:1;fill-rule:evenodd;stroke:#000000;stroke-width:1pt;stroke-opacity:1"
         d="M 0,0 5,-5 -12.5,0 5,5 0,0 Z"
         id="path6159-9-0" />
    </marker>
    <marker
       inkscape:isstock="true"
       style="overflow:visible"
       id="marker6157-1-6"
       refX="0"
       refY="0"
       orient="auto"
       inkscape:stockid="Arrow1Lstart">
      <path
         inkscape:connector-curvature="0"
         transform="matrix(0.8,0,0,0.8,10,0)"
         style="fill:#000000;fill-opacity:1;fill-rule:evenodd;stroke:#000000;stroke-width:1pt;stroke-opacity:1"
         d="M 0,0 5,-5 -12.5,0 5,5 0,0 Z"
         id="path6159-2-2" />
    </marker>
    <marker
       inkscape:isstock="true"
       style="overflow:visible"
       id="marker6157-5-6"
       refX="0"
       refY="0"
       orient="auto"
       inkscape:stockid="Arrow1Lstart">
      <path
         inkscape:connector-curvature="0"
         transform="matrix(0.8,0,0,0.8,10,0)"
         style="fill:#000000;fill-opacity:1;fill-rule:evenodd;stroke:#000000;stroke-width:1pt;stroke-opacity:1"
         d="M 0,0 5,-5 -12.5,0 5,5 0,0 Z"
         id="path6159-3-1" />
    </marker>
    <marker
       inkscape:isstock="true"
       style="overflow:visible"
       id="marker6157-8"
       refX="0"
       refY="0"
       orient="auto"
       inkscape:stockid="Arrow1Lstart">
      <path
         inkscape:connector-curvature="0"
         transform="matrix(0.8,0,0,0.8,10,0)"
         style="fill:#000000;fill-opacity:1;fill-rule:evenodd;stroke:#000000;stroke-width:1pt;stroke-opacity:1"
         d="M 0,0 5,-5 -12.5,0 5,5 0,0 Z"
         id="path6159-7" />
    </marker>
    <marker
       inkscape:stockid="Arrow1Lend"
       orient="auto"
       refY="0"
       refX="0"
       id="Arrow1Lend-5"
       style="overflow:visible"
       inkscape:isstock="true">
      <path
         inkscape:connector-curvature="0"
         id="path4216-9"
         d="M 0,0 5,-5 -12.5,0 5,5 0,0 Z"
         style="fill:#000000;fill-opacity:1;fill-rule:evenodd;stroke:#000000;stroke-width:1pt;stroke-opacity:1"
         transform="matrix(-0.8,0,0,-0.8,-10,0)" />
    </marker>
    <marker
       inkscape:stockid="Arrow1Mstart"
       orient="auto"
       refY="0"
       refX="0"
       id="Arrow1Mstart-3"
       style="overflow:visible"
       inkscape:isstock="true">
      <path
         inkscape:connector-curvature="0"
         id="path4219-2"
         d="M 0,0 5,-5 -12.5,0 5,5 0,0 Z"
         style="fill:#000000;fill-opacity:1;fill-rule:evenodd;stroke:#000000;stroke-width:1pt;stroke-opacity:1"
         transform="matrix(0.4,0,0,0.4,4,0)" />
    </marker>
  </defs>
  <sodipodi:namedview
     inkscape:document-units="mm"
     pagecolor="#ffffff"
     bordercolor="#666666"
     borderopacity="1.0"
     inkscape:pageopacity="0.0"
     inkscape:pageshadow="2"
     inkscape:zoom="0.86831672"
     inkscape:cx="561.0069"
     inkscape:cy="456.57505"
     inkscape:current-layer="layer1"
     id="namedview3356"
     showgrid="false"
     inkscape:window-width="1600"
     inkscape:window-height="1136"
     inkscape:window-x="0"
     inkscape:window-y="27"
     inkscape:window-maximized="1" />
  <metadata
     id="metadata3358">
    <rdf:RDF>
      <cc:Work
         rdf:about="">
        <dc:format>image/svg+xml</dc:format>
        <dc:type
           rdf:resource="http://purl.org/dc/dcmitype/StillImage" />
        <dc:title></dc:title>
      </cc:Work>
    </rdf:RDF>
  </metadata>
  <g
     inkscape:label="Layer 1"
     inkscape:groupmode="layer"
     id="layer1">
    <path
       style="fill:#ff8080;fill-opacity:1;stroke:#ececec;stroke-width:1.38200009;stroke-miterlimit:4;stroke-dasharray:none"
       id="path3363"
       sodipodi:type="arc"
       sodipodi:cx="60.522354"
       sodipodi:cy="170.2137"
       sodipodi:rx="41.602844"
       sodipodi:ry="12.350843"
       sodipodi:start="0"
       sodipodi:end="6.2048978"
       d="m 102.1252,170.2137 a 41.602844,12.350843 0 0 1 -40.788652,12.34848 41.602844,12.350843 0 0 1 -42.38517,-11.86515 41.602844,12.350843 0 0 1 39.129642,-12.81289 41.602844,12.350843 0 0 1 43.91675,11.36363"
       sodipodi:open="true" />
    <path
       style="fill:#d4ff2a;fill-opacity:1;stroke:#ececec;stroke-width:1.38200009;stroke-miterlimit:4;stroke-dasharray:none"
       id="path3367"
       sodipodi:type="arc"
       sodipodi:cx="59.675056"
       sodipodi:cy="47.026154"
       sodipodi:rx="16.088598"
       sodipodi:ry="14.300978"
       sodipodi:start="0"
       sodipodi:end="6.2048898"
       sodipodi:open="true"
       d="M 75.763655,47.026154 A 16.088598,14.300978 0 0 1 59.989953,61.324392 16.088598,14.300978 0 0 1 43.598785,47.585862 16.088598,14.300978 0 0 1 58.730851,32.749825 16.088598,14.300978 0 0 1 75.714367,45.907595" />
    <path
       style="fill:#ffe680;fill-opacity:1;stroke:#ececec;stroke-width:1.38200009;stroke-miterlimit:4;stroke-dasharray:none"
       id="path3369"
       sodipodi:type="arc"
       sodipodi:cx="49.606785"
       sodipodi:cy="114.44347"
       sodipodi:rx="7.8005333"
       sodipodi:ry="6.8254662"
       sodipodi:start="0"
       sodipodi:end="6.2048898"
       sodipodi:open="true"
       d="m 57.407318,114.44347 a 7.8005333,6.8254662 0 0 1 -7.647856,6.82415 7.8005333,6.8254662 0 0 1 -7.947234,-6.55702 7.8005333,6.8254662 0 0 1 7.33676,-7.08084 7.8005333,6.8254662 0 0 1 8.234433,6.27985" />
    <path
       style="fill:#ffe680;fill-opacity:1;stroke:#ececec;stroke-width:1.38200009;stroke-miterlimit:4;stroke-dasharray:none"
       id="path3369-3"
       sodipodi:type="arc"
       sodipodi:cx="72.099068"
       sodipodi:cy="114.61473"
       sodipodi:rx="7.8005333"
       sodipodi:ry="6.8254662"
       sodipodi:start="0"
       sodipodi:end="6.2048898"
       sodipodi:open="true"
       d="m 79.899601,114.61473 a 7.8005333,6.8254662 0 0 1 -7.647856,6.82416 7.8005333,6.8254662 0 0 1 -7.947234,-6.55703 7.8005333,6.8254662 0 0 1 7.33676,-7.08083 7.8005333,6.8254662 0 0 1 8.234433,6.27984" />
    <path
       style="fill:#ffe680;fill-opacity:1;stroke:#ececec;stroke-width:1.38200009;stroke-miterlimit:4;stroke-dasharray:none"
       id="path3369-3-6"
       sodipodi:type="arc"
       sodipodi:cx="94.231514"
       sodipodi:cy="113.89646"
       sodipodi:rx="7.8005333"
       sodipodi:ry="6.8254662"
       sodipodi:start="0"
       sodipodi:end="6.2048898"
       sodipodi:open="true"
       d="m 102.03205,113.89646 a 7.8005333,6.8254662 0 0 1 -7.647859,6.82416 7.8005333,6.8254662 0 0 1 -7.947234,-6.55703 7.8005333,6.8254662 0 0 1 7.33676,-7.08083 7.8005333,6.8254662 0 0 1 8.234433,6.27984" />
    <path
       style="fill:#ffe680;fill-opacity:1;stroke:#ececec;stroke-width:1.38200009;stroke-miterlimit:4;stroke-dasharray:none"
       id="path3369-3-7"
       sodipodi:type="arc"
       sodipodi:cx="26.498072"
       sodipodi:cy="114.46091"
       sodipodi:rx="7.8005333"
       sodipodi:ry="6.8254662"
       sodipodi:start="0"
       sodipodi:end="6.2048898"
       sodipodi:open="true"
       d="m 34.298605,114.46091 a 7.8005333,6.8254662 0 0 1 -7.647856,6.82416 7.8005333,6.8254662 0 0 1 -7.947234,-6.55703 7.8005333,6.8254662 0 0 1 7.33676,-7.08083 7.8005333,6.8254662 0 0 1 8.234433,6.27984" />
    <path
       style="fill:none;fill-rule:evenodd;stroke:#000000;stroke-width:0.58200002;stroke-linecap:butt;stroke-linejoin:miter;stroke-miterlimit:4;stroke-dasharray:none;stroke-opacity:1;marker-end:url(#Arrow1Lend)"
       d="M 28.276934,106.96796 58.178976,62.439914"
       id="path3407"
       inkscape:connector-curvature="0"
       sodipodi:nodetypes="cc" />
    <path
       style="fill:none;fill-rule:evenodd;stroke:#000000;stroke-width:0.58200002;stroke-linecap:butt;stroke-linejoin:miter;stroke-miterlimit:4;stroke-dasharray:none;stroke-opacity:1;marker-start:url(#Arrow1Lstart)"
       d="M 58.503999,62.439914 51.028486,106.96796"
       id="path4545"
       inkscape:connector-curvature="0"
       sodipodi:nodetypes="cc" />
    <path
       style="fill:none;fill-rule:evenodd;stroke:#000000;stroke-width:0.58200002;stroke-linecap:butt;stroke-linejoin:miter;stroke-miterlimit:4;stroke-dasharray:none;stroke-opacity:1;marker-start:url(#marker4567)"
       d="M 59.154042,62.439915 71.82991,106.96796"
       id="path4559"
       inkscape:connector-curvature="0"
       sodipodi:nodetypes="cc" />
    <path
       style="fill:none;fill-rule:evenodd;stroke:#000000;stroke-width:0.58200002;stroke-linecap:butt;stroke-linejoin:miter;stroke-miterlimit:4;stroke-dasharray:none;stroke-opacity:1;marker-start:url(#marker4609)"
       d="M 59.804086,62.439916 93.281375,105.99289"
       id="path4601"
       inkscape:connector-curvature="0"
       sodipodi:nodetypes="cc" />
    <path
       style="fill:none;fill-rule:evenodd;stroke:#000000;stroke-width:0.58200002;stroke-linecap:butt;stroke-linejoin:miter;stroke-miterlimit:4;stroke-dasharray:none;stroke-opacity:1;marker-start:url(#marker6157)"
       d="m 27.95191,121.26893 31.527156,35.75245"
       id="path6149"
       inkscape:connector-curvature="0"
       sodipodi:nodetypes="cc" />
    <path
       style="fill:none;fill-rule:evenodd;stroke:#000000;stroke-width:0.58200002;stroke-linecap:butt;stroke-linejoin:miter;stroke-miterlimit:4;stroke-dasharray:none;stroke-opacity:1;marker-start:url(#marker6157-5)"
       d="m 51.561554,122.73721 7.800538,33.80232"
       id="path6149-5"
       inkscape:connector-curvature="0"
       sodipodi:nodetypes="cc" />
    <path
       style="fill:none;fill-rule:evenodd;stroke:#000000;stroke-width:0.58200002;stroke-linecap:butt;stroke-linejoin:miter;stroke-miterlimit:4;stroke-dasharray:none;stroke-opacity:1;marker-start:url(#marker6157-1)"
       d="M 71.387908,122.73721 60.337151,156.2145"
       id="path6149-7"
       inkscape:connector-curvature="0"
       sodipodi:nodetypes="cc" />
    <path
       style="fill:none;fill-rule:evenodd;stroke:#000000;stroke-width:0.58200002;stroke-linecap:butt;stroke-linejoin:miter;stroke-miterlimit:4;stroke-dasharray:none;stroke-opacity:1;marker-start:url(#marker6157-0)"
       d="M 91.864307,122.08716 60.012132,156.86455"
       id="path6149-3"
       inkscape:connector-curvature="0"
       sodipodi:nodetypes="cc" />
    <path
       style="fill:#ff8080;fill-opacity:1;stroke:#ececec;stroke-width:1.38200009;stroke-miterlimit:4;stroke-dasharray:none"
       id="path3363-2"
       sodipodi:type="arc"
       sodipodi:cx="224.8947"
       sodipodi:cy="168.9725"
       sodipodi:rx="41.602844"
       sodipodi:ry="12.350844"
       sodipodi:start="0"
       sodipodi:end="6.2048978"
       d="m 266.49754,168.9725 a 41.602844,12.350844 0 0 1 -40.78865,12.34848 41.602844,12.350844 0 0 1 -42.38517,-11.86514 41.602844,12.350844 0 0 1 39.12965,-12.8129 41.602844,12.350844 0 0 1 43.91675,11.36363"
       sodipodi:open="true" />
    <path
       style="fill:#d4ff2a;fill-opacity:1;stroke:#ececec;stroke-width:1.38200009;stroke-miterlimit:4;stroke-dasharray:none"
       id="path3367-2"
       sodipodi:type="arc"
       sodipodi:cx="224.04739"
       sodipodi:cy="45.784954"
       sodipodi:rx="16.088598"
       sodipodi:ry="14.300978"
       sodipodi:start="0"
       sodipodi:end="6.2048898"
       sodipodi:open="true"
       d="m 240.13599,45.784954 a 16.088598,14.300978 0 0 1 -15.7737,14.298238 16.088598,14.300978 0 0 1 -16.39117,-13.73853 16.088598,14.300978 0 0 1 15.13207,-14.836036 16.088598,14.300978 0 0 1 16.98351,13.157769" />
    <path
       style="fill:#ffe680;fill-opacity:1;stroke:#ececec;stroke-width:1.38200009;stroke-miterlimit:4;stroke-dasharray:none"
       id="path3369-8"
       sodipodi:type="arc"
       sodipodi:cx="213.97919"
       sodipodi:cy="127.31336"
       sodipodi:rx="7.8005333"
       sodipodi:ry="6.8254662"
       sodipodi:start="0"
       sodipodi:end="6.2048898"
       sodipodi:open="true"
       d="m 221.77972,127.31336 a 7.8005333,6.8254662 0 0 1 -7.64786,6.82416 7.8005333,6.8254662 0 0 1 -7.94723,-6.55702 7.8005333,6.8254662 0 0 1 7.33676,-7.08084 7.8005333,6.8254662 0 0 1 8.23443,6.27984" />
    <path
       style="fill:#ffe680;fill-opacity:1;stroke:#ececec;stroke-width:1.38200009;stroke-miterlimit:4;stroke-dasharray:none"
       id="path3369-3-9"
       sodipodi:type="arc"
       sodipodi:cx="236.47142"
       sodipodi:cy="127.48463"
       sodipodi:rx="7.8005333"
       sodipodi:ry="6.8254662"
       sodipodi:start="0"
       sodipodi:end="6.2048898"
       sodipodi:open="true"
       d="m 244.27195,127.48463 a 7.8005333,6.8254662 0 0 1 -7.64785,6.82416 7.8005333,6.8254662 0 0 1 -7.94724,-6.55703 7.8005333,6.8254662 0 0 1 7.33676,-7.08083 7.8005333,6.8254662 0 0 1 8.23444,6.27984" />
    <path
       style="fill:#ffe680;fill-opacity:1;stroke:#ececec;stroke-width:1.38200009;stroke-miterlimit:4;stroke-dasharray:none"
       id="path3369-3-6-7"
       sodipodi:type="arc"
       sodipodi:cx="258.60391"
       sodipodi:cy="126.76637"
       sodipodi:rx="7.8005333"
       sodipodi:ry="6.8254662"
       sodipodi:start="0"
       sodipodi:end="6.2048898"
       sodipodi:open="true"
       d="m 266.40445,126.76637 a 7.8005333,6.8254662 0 0 1 -7.64786,6.82416 7.8005333,6.8254662 0 0 1 -7.94723,-6.55702 7.8005333,6.8254662 0 0 1 7.33676,-7.08084 7.8005333,6.8254662 0 0 1 8.23443,6.27985" />
    <path
       style="fill:#ffe680;fill-opacity:1;stroke:#ececec;stroke-width:1.38200009;stroke-miterlimit:4;stroke-dasharray:none"
       id="path3369-3-7-3"
       sodipodi:type="arc"
       sodipodi:cx="190.87073"
       sodipodi:cy="127.3308"
       sodipodi:rx="7.8005333"
       sodipodi:ry="6.8254662"
       sodipodi:start="0"
       sodipodi:end="6.2048898"
       sodipodi:open="true"
       d="m 198.67126,127.3308 a 7.8005333,6.8254662 0 0 1 -7.64786,6.82416 7.8005333,6.8254662 0 0 1 -7.94723,-6.55702 7.8005333,6.8254662 0 0 1 7.33676,-7.08084 7.8005333,6.8254662 0 0 1 8.23443,6.27985" />
    <path
       style="fill:#ffe680;fill-opacity:1;stroke:#ececec;stroke-width:1.38200009;stroke-miterlimit:4;stroke-dasharray:none"
       id="path3369-8-8"
       sodipodi:type="arc"
       sodipodi:cx="214.49979"
       sodipodi:cy="106.71308"
       sodipodi:rx="7.8005333"
       sodipodi:ry="6.8254662"
       sodipodi:start="0"
       sodipodi:end="6.2048898"
       sodipodi:open="true"
       d="m 222.30032,106.71308 a 7.8005333,6.8254662 0 0 1 -7.64786,6.82416 7.8005333,6.8254662 0 0 1 -7.94723,-6.55703 7.8005333,6.8254662 0 0 1 7.33676,-7.08083 7.8005333,6.8254662 0 0 1 8.23443,6.27984" />
    <path
       style="fill:#ffe680;fill-opacity:1;stroke:#ececec;stroke-width:1.38200009;stroke-miterlimit:4;stroke-dasharray:none"
       id="path3369-3-9-4"
       sodipodi:type="arc"
       sodipodi:cx="236.99202"
       sodipodi:cy="106.88435"
       sodipodi:rx="7.8005333"
       sodipodi:ry="6.8254662"
       sodipodi:start="0"
       sodipodi:end="6.2048898"
       sodipodi:open="true"
       d="m 244.79255,106.88435 a 7.8005333,6.8254662 0 0 1 -7.64785,6.82416 7.8005333,6.8254662 0 0 1 -7.94724,-6.55702 7.8005333,6.8254662 0 0 1 7.33676,-7.08084 7.8005333,6.8254662 0 0 1 8.23444,6.27985" />
    <path
       style="fill:#ffe680;fill-opacity:1;stroke:#ececec;stroke-width:1.38200009;stroke-miterlimit:4;stroke-dasharray:none"
       id="path3369-3-6-7-5"
       sodipodi:type="arc"
       sodipodi:cx="259.12439"
       sodipodi:cy="106.16611"
       sodipodi:rx="7.8005333"
       sodipodi:ry="6.8254662"
       sodipodi:start="0"
       sodipodi:end="6.2048898"
       sodipodi:open="true"
       d="m 266.92492,106.16611 a 7.8005333,6.8254662 0 0 1 -7.64785,6.82416 7.8005333,6.8254662 0 0 1 -7.94724,-6.55703 7.8005333,6.8254662 0 0 1 7.33676,-7.080834 7.8005333,6.8254662 0 0 1 8.23444,6.279844" />
    <path
       style="fill:#ffe680;fill-opacity:1;stroke:#ececec;stroke-width:1.38200009;stroke-miterlimit:4;stroke-dasharray:none"
       id="path3369-3-7-3-0"
       sodipodi:type="arc"
       sodipodi:cx="191.39128"
       sodipodi:cy="106.73054"
       sodipodi:rx="7.8005333"
       sodipodi:ry="6.8254662"
       sodipodi:start="0"
       sodipodi:end="6.2048898"
       sodipodi:open="true"
       d="m 199.19181,106.73054 a 7.8005333,6.8254662 0 0 1 -7.64785,6.82416 7.8005333,6.8254662 0 0 1 -7.94724,-6.55703 7.8005333,6.8254662 0 0 1 7.33676,-7.080834 7.8005333,6.8254662 0 0 1 8.23444,6.279844" />
    <path
       style="fill:#ffe680;fill-opacity:1;stroke:#ececec;stroke-width:1.38200009;stroke-miterlimit:4;stroke-dasharray:none"
       id="path3369-8-3"
       sodipodi:type="arc"
       sodipodi:cx="215.28624"
       sodipodi:cy="84.869644"
       sodipodi:rx="7.8005333"
       sodipodi:ry="6.8254662"
       sodipodi:start="0"
       sodipodi:end="6.2048898"
       sodipodi:open="true"
       d="m 223.08677,84.869644 a 7.8005333,6.8254662 0 0 1 -7.64785,6.824159 7.8005333,6.8254662 0 0 1 -7.94724,-6.557025 7.8005333,6.8254662 0 0 1 7.33676,-7.080835 7.8005333,6.8254662 0 0 1 8.23444,6.279844" />
    <path
       style="fill:#ffe680;fill-opacity:1;stroke:#ececec;stroke-width:1.38200009;stroke-miterlimit:4;stroke-dasharray:none"
       id="path3369-3-9-6"
       sodipodi:type="arc"
       sodipodi:cx="237.77846"
       sodipodi:cy="85.040909"
       sodipodi:rx="7.8005333"
       sodipodi:ry="6.8254662"
       sodipodi:start="0"
       sodipodi:end="6.2048898"
       sodipodi:open="true"
       d="m 245.57899,85.040909 a 7.8005333,6.8254662 0 0 1 -7.64786,6.824158 7.8005333,6.8254662 0 0 1 -7.94723,-6.557025 7.8005333,6.8254662 0 0 1 7.33676,-7.080835 7.8005333,6.8254662 0 0 1 8.23443,6.279844" />
    <path
       style="fill:#ffe680;fill-opacity:1;stroke:#ececec;stroke-width:1.38200009;stroke-miterlimit:4;stroke-dasharray:none"
       id="path3369-3-6-7-1"
       sodipodi:type="arc"
       sodipodi:cx="259.91092"
       sodipodi:cy="84.322647"
       sodipodi:rx="7.8005333"
       sodipodi:ry="6.8254662"
       sodipodi:start="0"
       sodipodi:end="6.2048898"
       sodipodi:open="true"
       d="m 267.71145,84.322647 a 7.8005333,6.8254662 0 0 1 -7.64785,6.824159 7.8005333,6.8254662 0 0 1 -7.94724,-6.557025 7.8005333,6.8254662 0 0 1 7.33676,-7.080836 7.8005333,6.8254662 0 0 1 8.23444,6.279845" />
    <path
       style="fill:#ffe680;fill-opacity:1;stroke:#ececec;stroke-width:1.38200009;stroke-miterlimit:4;stroke-dasharray:none"
       id="path3369-3-7-3-06"
       sodipodi:type="arc"
       sodipodi:cx="192.17772"
       sodipodi:cy="84.887085"
       sodipodi:rx="7.8005333"
       sodipodi:ry="6.8254662"
       sodipodi:start="0"
       sodipodi:end="6.2048898"
       sodipodi:open="true"
       d="m 199.97825,84.887085 a 7.8005333,6.8254662 0 0 1 -7.64785,6.824159 7.8005333,6.8254662 0 0 1 -7.94724,-6.557026 7.8005333,6.8254662 0 0 1 7.33676,-7.080835 7.8005333,6.8254662 0 0 1 8.23444,6.279844" />
    <path
       style="fill:none;fill-rule:evenodd;stroke:#000000;stroke-width:1.28200001;stroke-linecap:butt;stroke-linejoin:miter;stroke-opacity:1;stroke-miterlimit:4;stroke-dasharray:none;marker-start:url(#Arrow1Mstart)"
       d="m 225.24039,137.52004 c 0.65005,16.57614 0.97507,18.85129 0.97507,18.85129"
       id="path26398"
       inkscape:connector-curvature="0" />
    <path
       style="fill:none;fill-rule:evenodd;stroke:#000000;stroke-width:1.1863265;stroke-linecap:butt;stroke-linejoin:miter;stroke-miterlimit:4;stroke-dasharray:none;stroke-opacity:1;marker-start:url(#Arrow1Mstart-3)"
       d="m 225.4249,62.501127 c 0.71677,12.873163 1.07515,14.640063 1.07515,14.640063"
       id="path26398-0"
       inkscape:connector-curvature="0" />
    <text
       xml:space="preserve"
       style="font-style:normal;font-weight:normal;font-size:11.28888893px;line-height:125%;font-family:sans-serif;letter-spacing:0px;word-spacing:0px;fill:#000000;fill-opacity:1;stroke:none;stroke-width:1px;stroke-linecap:butt;stroke-linejoin:miter;stroke-opacity:1"
       x="41.602844"
       y="174.24754"
       id="text28061"
       sodipodi:linespacing="125%"><tspan
         sodipodi:role="line"
         id="tspan28063"
         x="41.602844"
         y="174.24754">Entrée</tspan></text>
    <text
       xml:space="preserve"
       style="font-style:normal;font-weight:normal;font-size:11.28888893px;line-height:125%;font-family:sans-serif;letter-spacing:0px;word-spacing:0px;fill:#000000;fill-opacity:1;stroke:none;stroke-width:1px;stroke-linecap:butt;stroke-linejoin:miter;stroke-opacity:1"
       x="206.66914"
       y="173.32793"
       id="text28061-6"
       sodipodi:linespacing="125%"><tspan
         sodipodi:role="line"
         id="tspan28063-1"
         x="206.66914"
         y="173.32793">Entrée</tspan></text>
  </g>
</svg>
